# xmcd
#
# Track frame offsets:
#	150
#	19896
#	38837
#	82426
#	95918
#	116750
#	150312
#	187820
#	227722
#
# Disc length: 3709 seconds
#
# Revision: 1
# Processed by: cddbd v1.5.2PL0 Copyright (c) Steve Scherf et al.
# Submitted via: audiograbber 1.83.01
#
DISCID=6f0e7b09
DTITLE=Grateful Dead - 80-10-14 Warfield Theatre, San Francisco CA
DYEAR=1900
DGENRE=
TTITLE0=Alabama Getaway
TTITLE1=Greatest Story Ever Told
TTITLE2=Friend Of The Devil
TTITLE3=Me and My Uncle
TTITLE4=Mexicali Blues
TTITLE5=Candyman
TTITLE6=Little Red Rooster
TTITLE7=Tennessee Jed
TTITLE8=Let It Grow
EXTD=
EXTT0=
EXTT1=
EXTT2=
EXTT3=
EXTT4=
EXTT5=
EXTT6=
EXTT7=
EXTT8=
PLAYORDER=
